<svg viewBox="0 0 22 22" role="presentation" fill="#e0e0e0" xmlns="http://www.w3.org/2000/svg" xmlns:xlink="http://www.w3.org/1999/xlink" width="100%" height="100%">
    <g>
        <path opacity=".9" d="M21.5 3.94c0 .45-.08.89-.26 1.31s-.42.8-.75 1.13l-13.5 13.5L.5 21.5l1.62-6.49 13.5-13.5c.33-.33.7-.58 1.13-.75.42-.17.86-.26 1.31-.26.47 0 .92.09 1.33.27.42.18.78.43 1.09.74s.56.68.74 1.09c.19.42.28.86.28 1.34zm-2.62 2.19c.17-.17.33-.33.49-.48s.3-.31.42-.48.22-.35.29-.54.11-.42.11-.68c0-.29-.06-.57-.17-.82s-.27-.48-.46-.68-.42-.35-.68-.46-.53-.17-.83-.17c-.26 0-.49.04-.68.11-.19.07-.38.17-.54.29s-.33.26-.48.42c-.15.16-.31.32-.48.49l3.01 3zM3.84 15.14c.72.24 1.35.62 1.87 1.14s.9 1.15 1.14 1.87L17.93 7.06l-3-3L3.84 15.14zm-1.53 4.55l3.37-.84c-.07-.31-.18-.61-.33-.89-.15-.28-.34-.53-.56-.75-.22-.22-.47-.41-.75-.56s-.58-.26-.89-.33l-.84 3.37z" />
    </g>
</svg>