<?xml version="1.0" encoding="utf-8"?>
<svg version="1.1" id="Layer_1" xmlns="http://www.w3.org/2000/svg" xmlns:xlink="http://www.w3.org/1999/xlink" x="0px" y="0px"
     width="50px" height="50px" viewBox="0 0 50 50" enable-background="new 0 0 50 50" xml:space="preserve">
  <path fill="#59B4D9"
        d="M2.356,41.9h45.288c1.301,0,2.356-1.055,2.356-2.356V10.456C50,9.155,48.945,8.1,47.644,8.1H2.356
        C1.055,8.1,0,9.155,0,10.456v29.088C0,40.845,1.055,41.9,2.356,41.9z" />
  <rect x="27.933" y="13.555" fill="#0072C6" width="16.163" height="2.03" />
  <rect x="27.933" y="20.508" fill="#0072C6" width="16.163" height="2.03" />
  <rect x="27.933" y="27.461" fill="#0072C6" width="16.163" height="2.03" />
  <rect x="27.933" y="34.414" fill="#0072C6" width="16.163" height="2.03" />
  <path fill="#804998"
        d="M18.245,18.105c0,2.654-2.152,4.806-4.807,4.806s-4.806-2.152-4.806-4.806s2.152-4.806,4.806-4.806
        S18.245,15.451,18.245,18.105" />
  <polygon fill="#804998"
           points="16.953,24.559 13.438,29.483 9.924,24.559 6.267,24.559 6.267,36.701 20.61,36.701 20.61,24.559 " />
  <path opacity="0.2" fill="#FFFFFF" enable-background="new    "
        d="M8.632,18.105c0,2.615,2.089,4.738,4.689,4.801l1.207-9.478
        c-0.35-0.082-0.714-0.129-1.089-0.129C10.783,13.299,8.632,15.451,8.632,18.105" />
  <polygon opacity="0.2" fill="#FFFFFF" enable-background="new    "
           points="9.925,24.559 6.266,24.559 6.266,36.701 11.586,36.701 12.647,28.375 " />
</svg>
