<?xml version="1.0" encoding="utf-8"?>
<svg version="1.1" id="Layer_1" xmlns="http://www.w3.org/2000/svg" xmlns:xlink="http://www.w3.org/1999/xlink" x="0px" y="0px"
     width="50px" height="50px" viewBox="0 0 50 50" enable-background="new 0 0 50 50" xml:space="preserve">
  <polygon fill="#59B4D9" points="45,6.8 40.2,2 38.2,0 38,0 3,0 3,50 47,50 47,9 47,8.8 " />
  <polygon opacity="0.8" fill="#FFFFFF" enable-background="new    " points="38,2 5,2 5,48 45,48 45,9 38,9 " />
  <path fill="#0072C6"
        d="M34.6,23.75H15.4c-0.8,0-1.5,0.7-1.5,1.7v7.2l2.6,0.7v-7h16.9v7l2.6-0.7v-7.2
  C36.1,24.45,35.4,23.75,34.6,23.75z" />
  <polygon fill="#0072C6" points="26.3,26.15 23.7,26.15 23.7,19.05 26.3,19.05 " />
  <path fill="#59B4D9"
        d="M29.3,7.95h-8.5c-0.9,0-1.7,0.7-1.7,1.7v8c0,0.9,0.7,1.7,1.7,1.7h8.5c0.9,0,1.7-0.7,1.7-1.7v-8
  C30.9,8.65,30.2,7.95,29.3,7.95z" />
  <path fill="#59B4D9"
        d="M19.4,30.65h-8.5c-0.9,0-1.7,0.7-1.7,1.7v8c0,0.9,0.7,1.7,1.7,1.7h8.5c0.9,0,1.7-0.7,1.7-1.7v-8
  C21.1,31.45,20.3,30.65,19.4,30.65z" />
  <path fill="#59B4D9"
        d="M39.1,30.65h-8.5c-0.9,0-1.7,0.7-1.7,1.7v8c0,0.9,0.7,1.7,1.7,1.7h8.5c0.9,0,1.7-0.7,1.7-1.7v-8
  C40.7,31.45,40,30.65,39.1,30.65z" />
</svg>
