<?xml version="1.0" encoding="utf-8"?>
<svg version="1.1" id="Layer_1" xmlns="http://www.w3.org/2000/svg" xmlns:xlink="http://www.w3.org/1999/xlink" x="0px" y="0px"
     width="50px" height="50px" viewBox="0 0 50 50" enable-background="new 0 0 50 50" xml:space="preserve">
  <polygon fill="#59B4D9" points="45,6.8 40.2,2 38.2,0 38,0 3,0 3,50 47,50 47,9 47,8.8 " />
  <polygon opacity="0.8" fill="#FFFFFF" enable-background="new    " points="38,2 5,2 5,48 45,48 45,9 38,9 " />
  <path fill="#1E1E1E"
        d="M28.8,42.88c0,0.6-0.5,1.1-1.1,1.1H12.6c-0.6,0-1.1-0.5-1.1-1.1s0.5-1.1,1.1-1.1h15.1
        C28.3,41.78,28.8,42.28,28.8,42.88" />
  <path fill="#59B4D9"
        d="M38.9,24.2c0,0.6-0.5,1.1-1.1,1.1H12.6c-0.6,0-1.1-0.5-1.1-1.1s0.5-1.1,1.1-1.1h25.1
        C38.4,23.1,38.9,23.6,38.9,24.2" />
  <path fill="#59B4D9"
        d="M38.9,16.7c0,0.6-0.5,1.1-1.1,1.1H12.6c-0.6,0-1.1-0.5-1.1-1.1s0.5-1.1,1.1-1.1h25.1
        C38.4,15.6,38.9,16.1,38.9,16.7" />
  <polygon fill="#1E1E1E" points="27.695,42.108 28.716,43.13 27.025,43.798 " />
  <path fill="#59B4D9"
        d="M38.9,31.977c0,0.6-0.5,1.1-1.1,1.1H12.6c-0.6,0-1.1-0.5-1.1-1.1c0-0.6,0.5-1.1,1.1-1.1h25.1
        C38.4,30.877,38.9,31.377,38.9,31.977" />
  <path fill="#0072C6"
        d="M49.511,22.099l-0.786-0.786c-0.652-0.652-1.708-0.652-2.359,0L29.873,37.805l0,0l0,0l-0.022,0.022
        l0.007,0.007l-2.164,4.275l1.021,1.021l4.275-2.164l0.007,0.008l16.514-16.514C50.163,23.807,50.163,22.75,49.511,22.099z" />
</svg>
