<?xml version="1.0" encoding="UTF-8" standalone="no"?><!DOCTYPE svg PUBLIC "-//W3C//DTD SVG 1.1//EN" "http://www.w3.org/Graphics/SVG/1.1/DTD/svg11.dtd"><svg width="100%" height="100%" viewBox="0 0 16 16" version="1.1" xmlns="http://www.w3.org/2000/svg" xmlns:xlink="http://www.w3.org/1999/xlink" xml:space="preserve" xmlns:serif="http://www.serif.com/" style="fill-rule:evenodd;clip-rule:evenodd;stroke-linejoin:round;stroke-miterlimit:1.41421;"><path d="M8.598,7.711l0,-1.799l-0.964,0l0,1.799c0,0.324 -0.309,0.612 -0.811,0.756l-1.311,0.251c-0.888,0.253 -1.504,0.901 -1.504,1.62l0,2.051l0.965,0l0,-2.051c0,-0.324 0.307,-0.612 0.808,-0.756l1.312,-0.288c0.887,-0.216 1.505,-0.864 1.505,-1.583Z" style="fill:#424242;fill-rule:nonzero;"/><path d="M6.13,13.325l0,-1.655c0,-0.397 -0.349,-0.72 -0.773,-0.72l-1.773,0c-0.424,0 -0.772,0.323 -0.772,0.72l0,1.655c0,0.396 0.348,0.72 0.772,0.72l1.773,0c0.424,0 0.773,-0.324 0.773,-0.72Z" style="fill:#424242;fill-rule:nonzero;"/><path d="M7.517,7.711l0,-1.799l0.965,0l0,1.799c0,0.324 0.309,0.612 0.81,0.756l1.62,0.323c0.886,0.253 1.504,0.901 1.504,1.62l0,2.051l-0.964,0l0,-2.051c0,-0.324 -0.309,-0.612 -0.811,-0.756l-1.619,-0.323c-0.887,-0.253 -1.505,-0.901 -1.505,-1.62Z" style="fill:#424242;fill-rule:nonzero;"/><path d="M10.294,13.397l0,-1.655c0,-0.397 0.347,-0.72 0.773,-0.72l1.773,0c0.424,0 0.771,0.323 0.771,0.72l0,1.655c0,0.396 -0.347,0.72 -0.771,0.72l-1.773,0c-0.426,0 -0.773,-0.324 -0.773,-0.72Z" style="fill:#424242;fill-rule:nonzero;"/><rect x="7.517" y="5.912" width="1.08" height="1.728" style="fill:#424242;"/><path d="M8.788,4.262l0,1.331l-1.03,0l-0.011,-1.331l1.041,0m0.309,-1.008l-1.359,0l0.02,2.339l-1.471,0.009l-0.005,0.279c0,0.397 0.347,0.72 0.771,0.72l2.044,0c0.424,0 0.771,-0.323 0.771,-0.72l0,-1.907c0,-0.395 -0.347,-0.72 -0.771,-0.72Z" style="fill:#424242;fill-rule:nonzero;"/><path d="M13.554,1.971c0.619,0 1.061,0.141 1.326,0.386c0.265,0.281 0.383,0.739 0.383,1.406l0,3.657c0,0.597 0.206,0.913 0.619,0.913l0,0.914c-0.413,0 -0.619,0.317 -0.619,0.95l0,3.551c0,0.667 -0.118,1.16 -0.383,1.441c-0.265,0.281 -0.707,0.422 -1.326,0.422l0,-0.914c0.442,0 0.678,-0.282 0.678,-0.879l0,-3.516c0,-0.808 0.206,-1.3 0.648,-1.511c-0.413,-0.211 -0.648,-0.703 -0.648,-1.511l0,-3.481c0,-0.317 -0.059,-0.562 -0.148,-0.703c-0.117,-0.141 -0.265,-0.211 -0.501,-0.211l-0.029,-0.914Z" style="fill:#424242;fill-rule:nonzero;"/><path d="M2.211,6.292l-1.031,-0.006l0,1.134c0,0.597 -0.206,0.913 -0.619,0.913l0,0.914c0.29,0 0.478,0.157 0.564,0.469c0.037,0.133 0.055,0.293 0.055,0.481l0,3.551c0,0.667 0.118,1.16 0.383,1.441c0.265,0.281 0.707,0.422 1.326,0.422l0,-0.914c-0.442,0 -0.678,-0.282 -0.678,-0.879l0,-3.516c0,-0.808 -0.206,-1.3 -0.648,-1.511c0.413,-0.211 0.648,-0.703 0.648,-1.511l0,-0.988Z" style="fill:#424242;fill-rule:nonzero;"/><path id="colorAction" d="M7,3.018l-2,0l0,-2.018l-1.981,0l0,2.018l-2.019,0l0,1.982l2.019,0l0,2l1.981,0l0,-2l2,0l0,-1.982Z" style="fill:#388a34;fill-rule:nonzero;"/></svg>